<?xml version="1.0" standalone="no"?>
<!DOCTYPE svg PUBLIC "-//W3C//DTD SVG 20010904//EN"
 "http://www.w3.org/TR/2001/REC-SVG-20010904/DTD/svg10.dtd">
<svg version="1.0" xmlns="http://www.w3.org/2000/svg"
 width="535.000000pt" height="280.000000pt" viewBox="0 0 535.000000 280.000000"
 preserveAspectRatio="xMidYMid meet">
<metadata>
Created by potrace 1.16, written by Peter Selinger 2001-2019
</metadata>
<g transform="translate(0.000000,280.000000) scale(0.100000,-0.100000)"
fill="#000000" stroke="none">
<path d="M0 2020 l0 -780 27 6 c16 4 38 11 51 15 21 8 23 7 16 -13 -4 -13 -12
-26 -18 -30 -7 -5 -4 -8 7 -8 9 0 17 6 17 14 0 8 7 16 15 20 18 7 19 -5 2 -24
-6 -8 1 -6 17 4 23 14 30 15 37 5 6 -10 13 -10 33 -1 24 11 26 10 23 -11 -2
-12 3 -52 13 -89 l16 -67 -23 -5 c-14 -4 -20 -11 -17 -21 4 -10 -3 -18 -22
-25 -20 -8 -25 -13 -15 -19 9 -6 5 -10 -14 -15 -20 -5 -26 -12 -22 -25 4 -16
-8 -23 -69 -42 l-74 -23 0 -193 0 -192 104 43 c85 36 106 41 110 30 3 -9 1
-12 -4 -9 -6 3 -10 1 -10 -4 0 -14 27 -14 35 -1 3 5 13 10 21 10 8 0 12 -5 9
-10 -4 -6 -11 -8 -16 -5 -5 3 -6 -1 -3 -10 4 -9 13 -14 22 -10 8 3 20 0 28 -6
9 -7 18 -7 33 0 24 13 34 14 27 2 -9 -13 5 -72 15 -65 5 3 9 -12 9 -33 1 -118
4 -133 25 -128 11 2 3 -3 -17 -11 -35 -15 -55 -40 -43 -53 3 -3 10 1 15 9 6
10 10 11 10 3 0 -7 -10 -17 -21 -24 -15 -8 -19 -8 -15 0 9 15 -7 14 -22 -1 -9
-9 -7 -14 5 -23 19 -14 9 -35 -15 -35 -15 1 -15 2 2 15 11 8 14 15 8 15 -23 0
-51 -38 -45 -61 6 -22 7 -22 15 -3 8 18 8 18 5 -1 -2 -19 -12 -24 -106 -42
-20 -3 -22 -6 -10 -15 11 -8 11 -9 -3 -4 -30 9 -168 -45 -168 -66 0 -5 283 -8
629 -8 l629 0 -13 37 c-9 25 -21 40 -37 44 -12 4 -17 7 -11 8 7 1 45 17 85 36
60 30 73 33 80 21 9 -17 33 -12 61 12 13 12 20 13 29 4 17 -17 29 -15 22 2 -4
10 7 20 32 31 22 9 40 12 42 7 4 -12 70 6 92 24 8 7 29 16 45 20 17 4 32 10
35 14 3 3 34 15 69 25 37 11 74 29 85 42 14 16 26 21 40 17 26 -8 23 -4 41
-48 11 -25 12 -35 4 -30 -9 5 -10 2 -6 -9 4 -12 2 -14 -10 -10 -10 4 -14 2
-10 -4 13 -21 -103 -58 -212 -68 -18 -2 -38 -8 -44 -14 -6 -6 -23 -11 -39 -11
-28 0 -134 -45 -144 -61 -3 -5 -16 -9 -29 -9 -16 0 -23 -5 -19 -13 2 -7 -4
-22 -16 -32 -11 -10 -20 -22 -20 -27 0 -4 103 -8 230 -8 l230 0 57 27 c32 16
60 30 63 33 3 3 23 13 44 23 40 18 55 13 56 -19 0 -14 -43 -44 -79 -54 -14 -5
731 -9 1657 -9 l1682 -1 0 1400 0 1400 -1755 0 c-1454 0 -1754 -2 -1749 -13 3
-10 -19 -19 -78 -34 -46 -12 -92 -25 -102 -29 -14 -5 -17 -4 -12 4 4 7 2 12
-3 12 -21 0 -11 30 12 34 104 22 99 24 -63 24 -91 0 -156 -3 -145 -7 17 -7 15
-9 -12 -13 -26 -4 -30 -2 -22 9 9 10 7 13 -10 13 -14 0 -20 -4 -15 -11 5 -8 1
-8 -14 0 -14 8 -197 11 -597 11 -509 0 -576 -2 -571 -15 3 -8 1 -15 -4 -15 -6
0 -10 7 -10 15 0 12 -18 15 -100 15 l-100 0 0 -780z m3603 608 c17 -13 37 -28
45 -35 7 -7 33 -27 58 -45 47 -33 46 -39 -11 -52 -29 -7 -29 -7 -10 8 20 16
20 16 -10 41 -26 23 -36 25 -80 19 -58 -7 -95 -20 -95 -32 0 -4 14 -16 32 -27
22 -13 28 -20 18 -23 -8 -3 -20 -9 -27 -14 -7 -6 -20 -1 -37 14 -14 13 -44 37
-66 53 -21 17 -39 33 -40 38 0 4 14 10 30 14 17 3 30 11 30 18 0 12 79 43 113
44 10 1 32 -9 50 -21z m-72 -449 c21 -17 47 -29 56 -27 10 1 23 -1 30 -5 6 -4
24 -2 39 3 21 8 32 7 50 -5 13 -8 24 -18 24 -21 0 -4 -11 1 -25 10 -21 14 -26
14 -31 3 -3 -8 -14 -12 -27 -10 -12 2 -35 -2 -50 -10 -27 -14 -27 -16 -10 -26
17 -10 17 -10 0 -11 -17 0 -16 -3 5 -30 18 -23 29 -28 48 -24 14 3 28 10 31
16 4 6 12 7 19 3 8 -5 -5 -14 -36 -26 -27 -11 -51 -19 -54 -19 -3 0 -20 14
-38 30 -19 16 -46 39 -62 51 -15 13 -26 28 -24 34 3 6 -9 21 -26 33 -16 13
-30 28 -30 35 1 7 6 5 13 -5 8 -9 20 -18 28 -20 8 -2 20 -10 26 -20 11 -13 17
-14 38 -5 l25 12 -37 33 c-48 41 -34 42 18 1z m-2382 -5 c15 -34 9 -41 -42
-49 -23 -4 -46 -11 -52 -15 -13 -9 -67 -24 -79 -21 -5 1 -12 -2 -15 -7 -7 -10
-161 -62 -182 -62 -18 1 80 42 196 82 88 30 120 46 111 55 -5 5 -135 -36 -151
-48 -5 -3 -26 -10 -45 -14 -19 -4 -39 -11 -45 -15 -5 -4 -38 -16 -72 -26 -38
-11 -63 -24 -63 -32 0 -10 7 -12 27 -7 41 10 18 -8 -27 -21 -36 -11 -39 -10
-50 14 -13 29 -9 33 54 52 22 7 50 16 61 21 11 5 46 15 78 23 31 8 63 19 69
23 14 9 186 70 204 72 6 0 16 -11 23 -25z m2239 -151 c94 -76 91 -70 39 -92
-67 -29 -80 -29 -92 -3 -5 12 -18 22 -28 22 -23 0 -69 35 -59 44 3 4 0 11 -8
17 -13 8 -13 10 0 19 8 5 23 10 32 10 9 0 20 5 23 10 12 20 47 9 93 -27z
m-1865 -355 c33 -44 43 -78 26 -89 -22 -14 -43 -11 -31 4 13 17 9 48 -11 77
l-17 24 -95 -49 c-89 -45 -94 -50 -88 -74 3 -14 7 -27 9 -29 1 -2 34 8 72 22
38 13 73 22 76 19 13 -13 5 -23 -19 -23 -14 0 -52 -14 -85 -31 -32 -16 -69
-31 -82 -33 -52 -6 -111 -31 -129 -54 -11 -14 -22 -22 -26 -19 -3 4 2 16 11
26 10 11 15 24 12 29 -6 10 70 37 92 33 9 -1 7 10 -8 38 -24 48 -26 75 -4 46
16 -20 16 -20 10 1 -6 18 6 25 121 66 71 25 131 47 135 47 4 1 18 -14 31 -31z
m207 -949 c0 -10 7 -19 15 -19 19 0 19 -7 0 -26 -8 -9 -19 -13 -25 -9 -5 3
-18 1 -30 -5 -11 -5 -29 -14 -40 -20 -25 -13 -33 -13 -25 0 6 9 -19 15 -40 10
-5 -2 -19 -4 -30 -5 -31 -2 -75 -27 -75 -42 0 -15 -16 -18 -24 -4 -7 10 -56 2
-56 -10 0 -5 -6 -9 -14 -9 -8 0 -16 -7 -20 -15 -3 -8 -17 -15 -31 -15 -16 0
-25 -6 -25 -16 0 -9 -6 -14 -12 -11 -7 2 -21 -8 -30 -22 -14 -20 -18 -22 -18
-8 0 9 -4 17 -10 17 -17 0 -11 17 13 44 17 19 27 22 40 15 10 -6 17 -7 16 -2
-4 26 2 33 27 27 16 -4 25 -3 21 2 -3 6 4 11 16 11 12 1 28 10 35 20 10 12 16
14 19 6 2 -7 11 -9 19 -6 7 3 11 9 8 14 -3 5 6 10 20 11 14 0 32 1 39 2 6 1
18 7 25 14 7 6 22 12 33 12 11 0 22 6 25 14 3 7 14 11 28 9 15 -3 33 4 52 20
31 27 54 25 54 -4z m-154 -180 c8 -17 21 -48 28 -68 l13 -36 -42 0 c-43 0 -83
-15 -119 -45 -11 -8 -16 -9 -12 -3 5 9 2 11 -8 7 -22 -8 -28 -34 -8 -34 12 0
10 -5 -10 -18 -26 -17 -27 -19 -11 -35 16 -16 16 -17 0 -17 -9 0 -17 -5 -17
-11 0 -6 -6 -9 -14 -6 -10 4 -12 0 -9 -14 3 -10 1 -19 -5 -19 -13 0 -26 55
-17 70 3 5 2 10 -4 10 -6 0 -8 6 -5 14 3 8 15 11 30 8 18 -3 23 -1 19 11 -4 8
1 17 10 21 9 3 13 11 10 16 -5 8 -11 7 -21 -1 -11 -9 -14 -9 -14 0 0 7 -5 9
-12 5 -7 -4 -8 -3 -4 4 4 7 14 12 22 12 8 0 14 4 14 9 0 5 -15 7 -32 5 -18 -1
-36 -3 -40 -3 -5 -1 -8 -8 -8 -17 0 -8 -5 -12 -10 -9 -16 10 6 32 45 46 30 11
33 15 28 44 -5 31 3 39 49 49 3 0 10 4 14 9 4 4 18 7 30 7 13 0 26 5 29 10 3
6 19 10 35 10 23 0 33 -7 46 -31z m-252 -284 c31 -73 32 -82 5 -90 -16 -5 -27
0 -44 19 -27 31 -35 33 -35 7 0 -11 -6 -22 -12 -24 -7 -3 1 -6 17 -7 l30 -1
-39 -21 -40 -20 -18 22 c-30 37 -24 53 17 46 31 -6 35 -4 35 14 0 18 -4 20
-39 14 -33 -5 -39 -3 -44 15 -2 11 2 36 11 55 12 26 23 36 47 40 20 4 37 16
45 31 l14 25 12 -32 c7 -18 24 -60 38 -93z"/>
<path d="M7 493 c-4 -3 -7 -31 -7 -61 0 -44 3 -53 15 -48 9 3 15 0 15 -8 0 -8
-7 -16 -15 -20 -18 -7 -16 -28 5 -38 12 -5 12 -7 -2 -7 -16 -1 -18 -12 -18
-96 0 -52 4 -95 9 -95 11 0 41 45 41 63 0 8 9 22 20 32 14 13 20 31 20 64 1
36 3 42 11 28 13 -22 29 -13 29 17 0 32 15 43 55 38 43 -5 41 -23 -3 -37 -20
-5 -32 -16 -32 -26 0 -9 -7 -19 -15 -23 -20 -7 -19 -46 1 -61 14 -9 14 -16 5
-34 -7 -12 -16 -19 -22 -16 -13 9 -50 -5 -44 -15 6 -10 103 -5 113 5 4 3 14
26 23 51 l17 44 -23 6 c-13 3 -29 3 -34 -1 -6 -3 -11 -1 -11 6 0 8 12 10 38 5
35 -5 40 -3 50 19 6 14 9 31 6 39 -3 9 5 21 20 31 14 10 26 24 26 31 0 16 -16
19 -25 4 -4 -6 -11 -7 -18 -3 -17 10 24 22 57 15 27 -5 29 -3 23 19 -4 13 -7
30 -7 37 0 11 -16 12 -77 6 -43 -4 -86 -7 -95 -6 -10 0 -18 -3 -18 -8 0 -11
-60 -1 -77 12 -7 6 -13 3 -17 -9 -3 -10 -4 -6 -2 9 2 17 -3 29 -11 32 -18 7
-18 7 -26 -1z"/>
</g>
</svg>
