<?xml version="1.0" standalone="no"?>
<!DOCTYPE svg PUBLIC "-//W3C//DTD SVG 20010904//EN"
 "http://www.w3.org/TR/2001/REC-SVG-20010904/DTD/svg10.dtd">
<svg version="1.0" xmlns="http://www.w3.org/2000/svg"
 width="35.000000pt" height="69.000000pt" viewBox="0 0 35.000000 69.000000"
 preserveAspectRatio="xMidYMid meet">
<metadata>
Created by potrace 1.10, written by Peter Selinger 2001-2011
</metadata>
<g transform="translate(0.000000,69.000000) scale(0.100000,-0.100000)"
fill="#000000" stroke="none">
<path d="M116 633 c-3 -3 -6 -16 -6 -28 0 -12 -9 -34 -21 -49 -21 -27 -11 -38
11 -11 10 13 15 10 34 -18 14 -21 40 -39 76 -54 30 -12 59 -29 65 -37 18 -28
-10 -39 -111 -42 -107 -3 -144 -18 -144 -58 0 -34 26 -51 107 -71 82 -19 166
-70 142 -86 -8 -6 -56 -7 -112 -3 -81 5 -101 3 -122 -10 -55 -36 -10 -89 92
-108 32 -6 82 -16 111 -23 28 -6 52 -8 52 -4 0 11 -52 26 -137 39 -73 12 -123
38 -123 66 0 25 43 33 143 27 71 -4 101 -3 112 7 14 12 13 16 -7 37 -30 33
-81 57 -148 73 -72 17 -90 27 -90 50 0 36 38 50 137 50 70 0 95 4 107 16 33
32 13 58 -72 94 -50 22 -72 43 -72 71 0 8 8 5 20 -6 31 -28 37 -8 7 23 -15 16
-27 33 -27 39 0 15 -15 25 -24 16z"/>
</g>
</svg>
